<?xml version="1.0" encoding="UTF-8" standalone="no"?>
<svg
   width="12cm"
   height="12cm"
   viewBox="0 0 120 120"
   version="1.1"
   id="svg1011"
   inkscape:version="1.2.2 (732a01da63, 2022-12-09, custom)"
   sodipodi:docname="logo_square.svg"
   xml:space="preserve"
   inkscape:export-filename="../59ff9a4d/2023-02-08_linx.png"
   inkscape:export-xdpi="200"
   inkscape:export-ydpi="200"
   xmlns:inkscape="http://www.inkscape.org/namespaces/inkscape"
   xmlns:sodipodi="http://sodipodi.sourceforge.net/DTD/sodipodi-0.dtd"
   xmlns:xlink="http://www.w3.org/1999/xlink"
   xmlns="http://www.w3.org/2000/svg"
   xmlns:svg="http://www.w3.org/2000/svg"
   xmlns:rdf="http://www.w3.org/1999/02/22-rdf-syntax-ns#"
   xmlns:cc="http://creativecommons.org/ns#"
   xmlns:dc="http://purl.org/dc/elements/1.1/"><defs
     id="defs1005"><inkscape:path-effect
       effect="powerstroke"
       id="path-effect1697"
       is_visible="true"
       lpeversion="1"
       offset_points="0.19027576,0.87559706 | 0.93327635,1.4291187 | 8.82,1.749995"
       sort_points="true"
       interpolator_type="CentripetalCatmullRom"
       interpolator_beta="0.2"
       start_linecap_type="butt"
       linejoin_type="round"
       miter_limit="4"
       scale_width="1"
       end_linecap_type="butt" /></defs><sodipodi:namedview
     id="base"
     pagecolor="#ffffff"
     bordercolor="#666666"
     borderopacity="1.0"
     inkscape:pageopacity="0.0"
     inkscape:pageshadow="2"
     inkscape:zoom="1.7450485"
     inkscape:cx="161.60009"
     inkscape:cy="229.50652"
     inkscape:document-units="mm"
     inkscape:current-layer="g1280"
     inkscape:document-rotation="0"
     showgrid="false"
     units="cm"
     inkscape:pagecheckerboard="true"
     width="12in"
     inkscape:window-width="1868"
     inkscape:window-height="1016"
     inkscape:window-x="52"
     inkscape:window-y="27"
     inkscape:window-maximized="1"
     inkscape:showpageshadow="0"
     inkscape:deskcolor="#d1d1d1" /><metadata
     id="metadata1008"><rdf:RDF><cc:Work
         rdf:about=""><dc:format>image/svg+xml</dc:format><dc:type
           rdf:resource="http://purl.org/dc/dcmitype/StillImage" /></cc:Work></rdf:RDF></metadata><g
     inkscape:groupmode="layer"
     id="layer4"
     inkscape:label="img"
     style="display:none"><image
       width="117.42136"
       height="176.13205"
       preserveAspectRatio="none"
       xlink:href="../bf660170/lynx.jpg"
       id="image285"
       x="-99.56031"
       y="8.2912092"
       transform="matrix(-0.98677457,0.1620986,0.1620986,0.98677457,0,0)"
       style="font-style:normal;font-variant:normal;font-weight:bold;font-stretch:normal;font-size:35.2777px;line-height:1.25;font-family:Laksaman;-inkscape-font-specification:'Laksaman, Bold';font-variant-ligatures:normal;font-variant-caps:normal;font-variant-numeric:normal;font-variant-east-asian:normal;letter-spacing:-0.529167px;display:inline;fill:#004482;fill-opacity:1;stroke:none;stroke-width:0.264999;stroke-miterlimit:4;stroke-dasharray:none" /></g><g
     inkscape:label="elephant"
     inkscape:groupmode="layer"
     id="layer1"
     style="display:none"><path
       style="fill:none;stroke:#00599c;stroke-width:1.75;stroke-linecap:butt;stroke-linejoin:miter;stroke-miterlimit:4;stroke-dasharray:none;stroke-opacity:1"
       d="m 72.19002,66.976044 c 11.720799,2.032349 21.860039,-9.467231 24.984459,-18.113648 3.330371,-9.21634 6.221481,-26.437638 12.573281,-25.013708"
       id="path1095-6-0-1"
       sodipodi:nodetypes="csc" /><path
       style="fill:#659ad2;fill-rule:nonzero;stroke:none;stroke-width:3.49999;stroke-linecap:butt;stroke-linejoin:round;stroke-miterlimit:4;stroke-dasharray:none;stroke-opacity:1"
       d="m 110.75751,19.582177 c -0.66589,-0.168432 -1.84352,-0.367362 -3.37122,-0.132117 -0.55189,0.08498 -1.12358,0.221813 -1.71813,0.417047 -0.50472,0.165733 -1.01891,0.370692 -1.54268,0.617173 -0.98857,0.465213 -2.03385,1.088915 -3.13944,1.906384 -0.94519,0.698868 -1.942262,1.54517 -2.996367,2.567844 -1.708017,1.657088 -3.480421,3.691493 -5.427886,6.237519 -1.147311,1.499942 -2.229199,3.00945 -3.374783,4.641241 -0.259448,0.369562 -0.817503,1.16821 -1.076952,1.537773 -0.999829,1.437845 -2.207784,3.226554 -3.259356,4.489529 -0.472817,0.56787 -0.954092,1.083855 -1.457298,1.524651 -0.463697,0.406186 -0.946859,0.749541 -1.470676,1.019875 -0.488685,0.252203 -1.031656,0.450883 -1.660691,0.576185 -0.597739,0.119068 -1.2947,0.176261 -2.129292,0.139295 -1.572298,-0.06964 -3.621062,-0.471363 -6.464884,-1.425735 -2.730521,-0.915748 -5.341066,-1.812546 -7.417885,-2.481664 -2.044057,-0.658563 -3.904687,-1.208386 -5.717165,-1.607419 -1.748778,-0.38501 -3.467865,-0.634198 -5.378768,-0.731264 -1.837269,-0.09333 -3.835009,-0.04529 -6.231642,0.143478 -2.166227,0.165986 -4.330641,0.760313 -6.50278,1.697856 -1.962715,0.847151 -3.914873,1.966976 -5.86764,3.282493 -0.3761,0.03603 -0.810689,0.06622 -1.313231,0.09679 -0.679645,0.04135 -1.457547,0.08183 -2.311843,0.139897 -1.696803,0.115341 -3.706282,0.301151 -5.874896,0.716316 -2.163147,0.414118 -4.497317,1.058522 -6.865573,2.09768 -2.369722,1.039801 -4.762753,2.470166 -7.046906,4.4467 -0.735706,0.631936 -1.4658877,1.262139 -2.1709112,1.872557 a 1.7675137,1.7705823 48.544509 0 0 -0.1583902,2.521611 c -0.013097,-0.01453 2.1055944,2.359879 4.2044354,4.954179 0.366401,0.453043 0.753326,1.009321 1.160742,1.653914 0.415232,0.656959 0.841916,1.389961 1.278809,2.171906 0.908806,1.626567 1.853381,3.446029 2.826332,5.234563 1.048062,1.926609 2.102656,3.772485 3.223088,5.453492 1.210941,1.8168 2.467195,3.390921 3.808514,4.603127 0.953665,0.86134 1.976903,1.390942 2.859891,1.724622 1.042521,0.393967 2.015775,0.562038 2.714624,0.640178 1.273889,0.142436 2.29625,0.05027 2.419989,0.04061 0.500491,-0.03908 0.48348,-0.05307 0.501691,-0.0559 l -0.538802,-3.458268 c 0.01821,-0.0028 0.08273,-0.0035 -0.250085,0.02599 -0.07632,0.0068 -0.80501,0.07556 -1.740628,-0.03111 -0.512761,-0.05846 -1.179378,-0.179271 -1.864316,-0.439984 -0.576775,-0.219541 -1.191844,-0.547544 -1.746183,-1.050491 -1.045495,-0.947179 -2.114435,-2.261591 -3.236452,-3.948539 -1.031769,-1.551258 -2.02605,-3.290153 -3.055372,-5.186193 -0.950751,-1.751309 -1.893925,-3.57321 -2.841117,-5.271866 -0.452789,-0.812013 -0.912971,-1.605722 -1.374387,-2.3372 -0.449775,-0.713023 -0.916675,-1.392513 -1.398022,-1.988913 -1.155197,-1.432175 -2.308936,-2.790325 -3.132826,-3.744487 0.272372,-0.236947 0.546189,-0.47552 0.82036,-0.714828 1.992736,-1.72671 4.078395,-2.976407 6.153393,-3.889426 2.078185,-0.914422 4.150318,-1.493084 6.111554,-1.871567 1.968373,-0.37986 3.820681,-0.557162 5.453065,-0.671863 0.820389,-0.05765 1.585314,-0.09947 2.288065,-0.144357 0.697152,-0.04453 1.357895,-0.09358 1.93701,-0.168087 a 1.7754635,1.7143622 23.106977 0 0 0.771096,-0.294298 c 1.943134,-1.344131 3.813572,-2.437668 5.634787,-3.236776 1.891196,-0.829813 3.680442,-1.32036 5.397377,-1.467571 2.295568,-0.189701 4.137955,-0.239669 5.794903,-0.165283 1.709663,0.07675 3.24515,0.287639 4.831633,0.62517 1.662348,0.353672 3.409858,0.853571 5.421712,1.487003 2.06391,0.649821 4.613523,1.508513 7.39409,2.42354 3.016393,0.99255 5.388252,1.467188 7.372698,1.531852 1.065763,0.03473 2.023439,-0.04898 2.89915,-0.238061 0.926619,-0.200077 1.745053,-0.514778 2.481142,-0.913183 0.782353,-0.423444 1.461897,-0.936334 2.064765,-1.487433 0.649292,-0.593535 1.228983,-1.249671 1.751973,-1.906534 1.134204,-1.424532 2.39513,-3.390075 3.304944,-4.773191 0.185579,-0.279249 0.845341,-1.276388 1.034317,-1.560635 1.103913,-1.666194 2.097091,-3.153354 3.166165,-4.670158 1.798141,-2.551203 3.39087,-4.578665 4.904999,-6.233973 0.933372,-1.020397 1.805782,-1.864097 2.625542,-2.558476 0.95936,-0.812635 1.8545,-1.427454 2.69356,-1.877282 0.44437,-0.238232 0.87701,-0.432321 1.29858,-0.584752 0.4958,-0.17927 0.96801,-0.298712 1.4153,-0.369768 1.22803,-0.195086 2.15806,-0.0046 2.67576,0.126345 z"
       id="path10-2-8-9-0"
       sodipodi:nodetypes="ccsscscssc"
       inkscape:path-effect="#path-effect1697"
       inkscape:original-d="M 110.5428,20.43104 C 102.46282,18.387278 94.398188,30.740727 89.310261,38.194321 84.499429,45.305312 82.43252,48.994058 71.15352,45.246995 59.444599,41.357092 56.292617,39.978617 47.059627,40.723347 c -3.97329,0.32048 -7.931748,2.244222 -11.885519,4.967603 -4.159919,0.527042 -14.321389,-0.266653 -22.87909,7.143237 l -2.16736,1.87666 c 0,0 1.99382,2.220341 4.26116,5.027171 3.35737,4.15618 7.114701,14.413349 12.101421,18.92486 2.84841,2.576959 7.0487,1.922549 7.0487,1.922549" /></g><g
     inkscape:groupmode="layer"
     id="layer2"
     inkscape:label="text_font"
     style="display:none"
     transform="translate(-1.7862114)"><text
       xml:space="preserve"
       style="font-style:normal;font-variant:normal;font-weight:bold;font-stretch:normal;font-size:35.2777px;line-height:1.25;font-family:Laksaman;-inkscape-font-specification:'Laksaman, Bold';font-variant-ligatures:normal;font-variant-caps:normal;font-variant-numeric:normal;font-variant-east-asian:normal;letter-spacing:-0.529167px;display:inline;fill:#825b00;fill-opacity:1;stroke:none;stroke-width:0.264999;stroke-miterlimit:4;stroke-dasharray:none"
       x="4.2275324"
       y="91.11042"
       id="text839-9-6-68-3-0"
       inkscape:label="splider"><tspan
         sodipodi:role="line"
         x="4.2275324"
         y="91.11042"
         style="font-style:normal;font-variant:normal;font-weight:bold;font-stretch:normal;font-size:35.2777px;font-family:Laksaman;-inkscape-font-specification:'Laksaman, Bold';font-variant-ligatures:normal;font-variant-caps:normal;font-variant-numeric:normal;font-variant-east-asian:normal;fill:#825b00;fill-opacity:1;stroke-width:0.264999;stroke-miterlimit:4;stroke-dasharray:none"
         dx="0 0 0 0 0 0 0 0"
         id="tspan841-0-20-5-9-44">splider<tspan
   style="font-style:normal;font-variant:normal;font-weight:bold;font-stretch:normal;font-size:35.2777px;font-family:Laksaman;-inkscape-font-specification:'Laksaman, Bold';font-variant-ligatures:normal;font-variant-caps:normal;font-variant-numeric:normal;font-variant-east-asian:normal;letter-spacing:-1.32292px;fill:#825b00;fill-opacity:1;stroke-width:0.264999"
   id="tspan909-4-9-1-4" /></tspan></text></g><g
     inkscape:groupmode="layer"
     id="layer2-7"
     inkscape:label="text_path"
     style="display:inline"
     transform="translate(-1.7728594,-41.899055)"><g
       aria-label="splider"
       id="text839-9-6-68-3-0-5"
       style="font-weight:bold;font-size:35.2777px;line-height:1.25;font-family:Laksaman;-inkscape-font-specification:'Laksaman, Bold';letter-spacing:-0.529167px;display:inline;fill:#5bb200;fill-opacity:1;stroke-width:0.264999"
       inkscape:label="splider"
       transform="translate(0,23.791495)"><path
         d="m 16.468904,93.257917 q -1.305274,0 -2.29305,0.705554 -0.952498,0.670277 -0.952498,1.834441 0,1.37583 3.880547,2.716383 5.221099,1.799165 5.221099,5.503325 0,2.6811 -2.046106,4.16276 -2.046107,1.48167 -5.115266,1.48167 -2.716384,0 -5.8561005,-1.76389 l 1.3405525,-2.64583 q 2.151941,1.48167 4.656658,1.48167 3.704159,0 3.704159,-2.54 0,-2.01082 -3.598326,-3.10443 -5.291656,-1.658055 -5.291656,-5.044714 0,-2.469439 1.869718,-3.915825 1.904997,-1.481663 4.691936,-1.481663 3.033882,0 5.221099,1.552218 l -1.234719,2.434162 q -1.869718,-1.375831 -4.198047,-1.375831 z"
         id="path1231"
         style="fill:#5bb200;fill-opacity:1" /><path
         d="m 43.526884,99.678459 q 0,4.268601 -2.681105,7.126091 -2.645827,2.8575 -6.773318,2.8575 -3.668881,0 -6.032487,-2.18722 v 9.27803 H 24.688593 V 96.962076 q 0,-4.374435 -0.211666,-6.13832 h 3.280826 l 0.388055,1.940274 q 2.786938,-2.328328 6.349985,-2.328328 3.880547,0 6.455819,2.681105 2.575272,2.645827 2.575272,6.561652 z M 33.966628,106.734 q 2.998604,0 4.656656,-1.905 1.658052,-1.90499 1.658052,-5.115264 0,-2.75166 -1.728607,-4.621378 -1.728608,-1.904996 -4.374435,-1.904996 -2.081384,0 -4.127491,1.763885 -2.010829,1.728607 -2.010829,3.704158 v 2.963325 q 0,2.15194 1.799163,3.6336 1.799163,1.48167 4.127491,1.48167 z"
         id="path1233"
         style="fill:#5bb200;fill-opacity:1" /><path
         d="m 53.863203,109.59149 q -7.902205,-0.42333 -7.902205,-9.701365 V 82.427664 h 3.351381 v 16.721629 q 0,3.739437 1.023054,5.503317 1.058331,1.72861 3.915824,1.905 z"
         id="path1235"
         style="fill:#5bb200;fill-opacity:1" /><path
         d="M 59.013731,109.16816 H 55.66235 V 91.141256 h 3.351381 z M 57.249846,83.274329 c 0.705554,0 1.305275,0.246944 1.799163,0.740831 0.517406,0.493888 0.776109,1.093609 0.776109,1.799163 0,0.705554 -0.258703,1.305275 -0.776109,1.799163 -0.493888,0.493887 -1.093609,0.740831 -1.799163,0.740831 -0.705554,0 -1.305275,-0.246944 -1.799163,-0.740831 -0.493887,-0.493888 -0.740831,-1.093609 -0.740831,-1.799163 0,-0.705554 0.246944,-1.305275 0.740831,-1.799163 0.493888,-0.493887 1.093609,-0.740831 1.799163,-0.740831 z"
         id="path1237"
         sodipodi:nodetypes="cccccscscsssss"
         style="fill:#5bb200;fill-opacity:1" /><path
         d="M 79.968643,109.16816 H 76.79365 q -0.176388,-0.635 -0.176388,-1.97555 -2.539995,2.46944 -6.420541,2.46944 -4.021658,0 -6.667485,-2.75166 -2.61055,-2.78694 -2.61055,-7.126098 0,-4.092213 2.539994,-6.702763 2.575272,-2.645827 6.491097,-2.645827 3.951102,0 6.455819,2.504716 V 82.427664 h 3.351381 v 21.907446 q 0,2.2225 0.211666,4.83305 z M 70.478942,106.734 q 2.504717,0 4.198046,-1.12889 1.728608,-1.16416 1.728608,-3.28082 v -4.127495 q 0,-1.975551 -2.010829,-3.492492 -1.975551,-1.516941 -4.127491,-1.516941 -2.716383,0 -4.409712,1.869718 -1.658052,1.869718 -1.658052,4.727212 0,3.174988 1.622774,5.079988 1.658052,1.86972 4.656656,1.86972 z"
         id="path1239"
         style="fill:#5bb200;fill-opacity:1" /><path
         d="m 85.683597,100.66623 q 0.211666,2.78694 2.010829,4.40972 1.83444,1.58749 4.797767,1.58749 2.963327,0 6.773313,-1.37583 l 0.388047,2.92805 q -3.915812,1.44639 -7.373026,1.44639 -4.233324,0 -7.05554,-2.57527 -2.822216,-2.57528 -2.822216,-6.66749 0,-4.409712 2.645828,-7.19665 2.681105,-2.786938 7.020262,-2.786938 8.149139,0 8.325529,10.230528 z m 11.429975,-2.786934 q -0.282222,-2.081384 -1.728608,-3.386659 -1.411108,-1.305275 -3.633603,-1.305275 -2.187217,0 -3.845269,1.37583 -1.622774,1.340553 -2.010829,3.316104 z"
         id="path1241"
         style="fill:#5bb200;fill-opacity:1" /><path
         d="m 105.75656,93.399028 q 0.49389,-1.023053 2.01083,-1.904995 1.55222,-0.881943 2.96333,-0.881943 1.12888,0 1.69333,0.141111 v 2.857493 q -0.42334,-0.105833 -1.19945,-0.105833 -5.04471,0 -5.04471,6.067764 v 9.595535 h -3.35138 V 97.244297 q 0,-4.233323 -0.635,-6.385263 h 2.96333 q 0.59972,0.987776 0.59972,2.539994 z"
         id="path1243"
         style="fill:#5bb200;fill-opacity:1" /></g></g><g
     inkscape:groupmode="layer"
     id="g1280"
     inkscape:label="spider"
     style="display:inline"
     transform="rotate(-12.734743,115.40205,36.145963)"><path
       d="m 76.374234,14.49372 c 0.688198,0.155531 1.21873,0.528602 1.591598,1.119211 0.395807,0.595795 0.515945,1.237791 0.360414,1.925989 -0.155531,0.688199 -0.540071,1.21614 -1.153621,1.583823 -0.59061,0.372866 -1.230014,0.481535 -1.918213,0.326004 -0.688198,-0.155531 -1.21873,-0.528601 -1.591598,-1.119211 -0.372866,-0.59061 -0.481535,-1.230014 -0.326004,-1.918213 0.155531,-0.688198 0.528602,-1.218731 1.119211,-1.591599 0.59061,-0.372866 1.230014,-0.481534 1.918213,-0.326004 z"
       id="path1254"
       style="font-weight:bold;font-size:35.2777px;line-height:1.25;font-family:Laksaman;-inkscape-font-specification:'Laksaman, Bold';letter-spacing:-0.529167px;display:inline;fill:#56b200;fill-opacity:1;stroke:none;stroke-width:1;stroke-dasharray:none;stroke-opacity:1" /><path
       d="m 71.119842,13.621019 c 0.378606,0.08556 0.670473,0.290806 0.875603,0.615724 0.21775,0.327771 0.283843,0.680959 0.198279,1.059565 -0.08556,0.378606 -0.297115,0.669048 -0.634654,0.871326 -0.324919,0.205128 -0.676681,0.264912 -1.055287,0.179348 -0.378606,-0.08556 -0.670473,-0.290805 -0.875603,-0.615724 -0.205129,-0.324919 -0.264912,-0.676681 -0.179348,-1.055287 0.08556,-0.378606 0.290805,-0.670474 0.615723,-0.875604 0.324919,-0.205128 0.676681,-0.264911 1.055287,-0.179348 z"
       id="path1254-3"
       style="font-weight:bold;font-size:35.2777px;line-height:1.25;font-family:Laksaman;-inkscape-font-specification:'Laksaman, Bold';letter-spacing:-0.529167px;display:inline;fill:#56b200;fill-opacity:1;stroke:none;stroke-width:1;stroke-dasharray:none;stroke-opacity:1" /><path
       d="m 83.844168,16.653518 c 1.163626,0.262974 2.060666,0.893773 2.691122,1.892392 0.669241,1.007387 0.872373,2.092893 0.609398,3.256518 -0.262976,1.163627 -0.913168,2.056282 -1.950576,2.677971 -0.99862,0.630455 -2.079744,0.814193 -3.243368,0.551217 -1.163624,-0.262974 -2.060665,-0.893773 -2.691119,-1.892392 -0.630455,-0.998622 -0.814194,-2.079744 -0.551217,-3.243371 0.262976,-1.163624 0.893773,-2.060664 1.892393,-2.691119 0.99862,-0.630454 2.079743,-0.814192 3.243367,-0.551216 z"
       id="path1254-6"
       style="font-weight:bold;font-size:35.2777px;line-height:1.25;font-family:Laksaman;-inkscape-font-specification:'Laksaman, Bold';letter-spacing:-0.529167px;display:inline;fill:#56b200;fill-opacity:1;stroke:none;stroke-width:1.18228;stroke-dasharray:none;stroke-opacity:1" /><path
       style="display:inline;fill:none;stroke:#95da58;stroke-width:3;stroke-linecap:butt;stroke-linejoin:round;stroke-dasharray:none;stroke-opacity:1"
       d="M 67.743219,14.507354 C 62.833966,13.799868 56.689008,13.289112 47.284649,17.604208 35.32102,17.475525 25.528273,17.666447 12.118843,32.0778"
       id="path1402-2-0-2"
       sodipodi:nodetypes="ccc" /><path
       style="display:none;fill:none;stroke:#3d6b15;stroke-width:3;stroke-linecap:butt;stroke-linejoin:round;stroke-dasharray:none;stroke-opacity:1"
       d="M 102.86216,59.185025 C 99.791547,45.955212 96.690187,38.291677 91.427795,28.706119 86.618537,32.777491 82.390047,37.466882 78.061673,43.455574"
       id="path1402-2"
       sodipodi:nodetypes="ccc" /><path
       style="display:none;fill:none;stroke:#3d6b15;stroke-width:3;stroke-linecap:butt;stroke-linejoin:round;stroke-dasharray:none;stroke-opacity:1"
       d="m 83.127774,59.120348 c -0.60199,-12.794214 -1.130833,-15.439297 -5.086,-25.626445 -4.269203,3.953707 -7.650237,7.328376 -10.326185,11.722865"
       id="path1402-2-6"
       sodipodi:nodetypes="ccc" /><path
       style="color:#000000;fill:#3d6b15;stroke-linejoin:round;-inkscape-stroke:none"
       d="m 91.708984,27.376953 c -0.442614,-0.08191 -0.898615,0.03926 -1.242187,0.330078 -4.911839,4.158214 -9.230993,8.952338 -13.613281,15.015625 l 2.43164,1.757813 c 3.83654,-5.308195 7.615573,-9.454886 11.742188,-13.148438 4.630395,8.682344 8.043051,16.158206 10.897006,28.454539 l 1.77293,-0.394881 C 100.60522,46.06948 98.055048,37.794116 92.75,28.130859 92.533681,27.736098 92.151525,27.45934 91.708984,27.376953 Z"
       id="path1402-2-7"
       sodipodi:nodetypes="ccccccccc" /><path
       style="color:#000000;fill:#3d6b15;stroke-linejoin:round;-inkscape-stroke:none"
       d="m 78.386719,32.177734 c -0.484394,-0.111926 -0.992774,0.0234 -1.357422,0.361328 -4.291725,3.974565 -7.797454,7.460465 -10.587891,12.042969 l 2.5625,1.560547 c 2.194359,-3.603615 5.041377,-6.563733 8.441406,-9.796875 3.092394,8.19271 4.157644,11.421431 4.707557,23.108836 l 1.847145,0.140275 C 83.396543,46.769111 83.417807,43.324404 79.447266,33.097656 79.267903,32.634309 78.870761,32.289827 78.386719,32.177734 Z"
       id="path1402-2-6-5"
       sodipodi:nodetypes="ccccccccc" /></g></svg>
